<svg xmlns="http://www.w3.org/2000/svg" width="485.213" height="485.212" viewBox="0 0 485.213 485.212"><path d="M60.652 75.816V15.163C60.652 6.78 67.432 0 75.817 0c8.38 0 15.16 6.78 15.16 15.163v60.653c0 8.38-6.78 15.16-15.16 15.16-8.384.002-15.165-6.78-15.165-15.16zm257.772 15.162c8.378 0 15.163-6.78 15.163-15.16V15.162C333.587 6.78 326.802 0 318.424 0c-8.382 0-15.168 6.78-15.168 15.163v60.653c0 8.38 6.786 15.162 15.168 15.162zm166.788 272.928c0 66.996-54.312 121.307-121.303 121.307-66.987 0-121.303-54.31-121.303-121.307 0-66.986 54.315-121.3 121.302-121.3 66.99 0 121.302 54.313 121.302 121.3zm-30.322 0c0-50.16-40.81-90.976-90.98-90.976-50.166 0-90.976 40.814-90.976 90.976 0 50.17 40.81 90.98 90.976 90.98 50.17 0 90.98-40.81 90.98-90.98zm-333.585-181.95H60.652v60.65h60.653v-60.65zM60.652 333.583h60.653V272.93H60.652v60.654zm90.977-90.978h60.653v-60.65H151.63v60.65zm0 90.978h60.653V272.93H151.63v60.654zM30.327 360.89V151.63H363.91v60.653h30.327V94c0-18.42-14.692-33.35-32.843-33.35h-12.647v15.167c0 16.7-13.596 30.325-30.322 30.325-16.73 0-30.326-13.624-30.326-30.325V60.65H106.14v15.167c0 16.7-13.593 30.325-30.322 30.325-16.733 0-30.327-13.624-30.327-30.325V60.65H32.86C14.706 60.65 0 75.58 0 94v266.892c0 18.36 14.707 33.346 32.86 33.346h179.423v-30.33H32.86c-1.375-.002-2.532-1.42-2.532-3.017zm272.928-118.284v-60.65h-60.648v60.65h60.648zm106.143 121.3h-45.49v-45.49c0-8.377-6.782-15.158-15.164-15.158s-15.16 6.78-15.16 15.158v60.658c0 8.378 6.778 15.163 15.16 15.163H409.4c8.38 0 15.162-6.785 15.162-15.163 0-8.382-6.78-15.168-15.163-15.168z" fill="#1d609b"/></svg>