<svg xmlns="http://www.w3.org/2000/svg" viewBox="0 0 485.632 485.632"><path d="M242.816 0C148.7 0 72.396 76.303 72.396 170.42c0 7.204.578 14.226 1.46 21.187 14.56 133.12 157.894 286.546 157.894 286.546 2.554 2.858 5.016 4.62 7.387 5.897l.122.06 4.772 1.52 4.773-1.52.122-.06c2.37-1.277 4.834-3.13 7.387-5.897 0 0 141.266-153.7 155.493-286.85.85-6.87 1.43-13.83 1.43-20.914C413.204 76.302 336.932 0 242.816 0zm0 280.04c-60.434 0-109.62-49.186-109.62-109.62S182.382 60.8 242.816 60.8s109.59 49.186 109.59 109.62-49.156 109.62-109.59 109.62z" fill="#789ab8"/></svg>