<svg xmlns="http://www.w3.org/2000/svg" width="617.115" height="617.115" viewBox="0 0 617.115 617.115"><path d="M387.174 617.115a15.762 15.762 0 0 1-14.254-9.053l-117.214-249.11L11.733 246.81a15.756 15.756 0 0 1-9.166-14.896 15.76 15.76 0 0 1 10.238-14.185L593.285 1a15.76 15.76 0 0 1 16.598 3.555 15.776 15.776 0 0 1 3.74 16.562l-211.616 585.59a15.76 15.76 0 0 1-14.09 10.383c-.245.018-.49.025-.743.025zM59.336 233.995l214.76 98.712a15.76 15.76 0 0 1 7.678 7.61L385.27 560.27 572.392 42.45 59.336 233.996z" fill="#e8290c"/></svg>