<svg xmlns="http://www.w3.org/2000/svg" width="413.12" height="413.12" viewBox="0 0 413.12 413.12" fill="#cacaca"><path d="M289.537 49.617c-66.143-66.156-173.774-66.156-239.926 0-66.147 66.146-66.147 173.774 0 239.916 63.882 63.884 166.44 66.06 232.973 6.562l13.45 13.45c-3.35 8.578-1.596 18.678 5.325 25.604l70.973 70.972c9.335 9.334 24.466 9.33 33.79 0 9.334-9.33 9.334-24.46 0-33.794l-70.967-70.96c-6.927-6.925-17.035-8.68-25.604-5.33l-13.45-13.454c59.504-66.54 57.32-169.094-6.563-232.967zM69.887 269.27c-54.968-54.97-54.968-144.41 0-199.38 54.97-54.973 144.412-54.968 199.38 0s54.97 144.414 0 199.383-144.41 54.964-199.38-.004z"/><path d="M103.38 102.15c24.01-24.008 51.915-41.44 81.26-52.305-33.244-1.9-68.85 11.038-96.17 38.354-27.7 27.698-40.6 63.92-38.247 97.57 10.786-30.21 28.502-58.964 53.158-83.62z"/></svg>